# xmcd
#
# Track frame offsets: 
#        150
#        14775
#        29700
#        56115
#        74385
#        88230
#        108120
#        118950
#
# Disc length: 1836 seconds
#
# Revision: 0
# Processed by: cddbd v1.5.2PL0 Copyright (c) Steve Scherf et al.
# Submitted via: ExactAudioCopy v1.1
#
DISCID=78072a08
DTITLE=Selwyn Birchwood - Fl Boy
DYEAR=2011
DGENRE=Blues
TTITLE0=The Way You Wiggle
TTITLE1=Fl Boy
TTITLE2=Lazarus
TTITLE3=Found Love Today
TTITLE4=Old Salty
TTITLE5=Signs Of The Times
TTITLE6=Dollar To My Name
TTITLE7=Black Widow
EXTD=
EXTT0=
EXTT1=
EXTT2=
EXTT3=
EXTT4=
EXTT5=
EXTT6=
EXTT7=
PLAYORDER=
